<svg xmlns="http://www.w3.org/2000/svg" viewBox="0 0 1575.52 570.5"><defs><style>.cls-1,.cls-2{stroke:#000;stroke-miterlimit:10;}.cls-1{stroke-width:2px;}.cls-2{stroke-linecap:round;stroke-width:20px;}</style></defs><g id="Layer_1" data-name="Layer 1"><g id="C-MENT"><path class="cls-1" d="M896.81,622.09c-9.6,4.8-28.8,9.6-53.4,9.6-57,0-99.9-36-99.9-102.3,0-63.3,42.9-106.2,105.6-106.2,25.2,0,41.1,5.4,48,9l-6.3,21.3c-9.9-4.8-24-8.4-40.8-8.4-47.4,0-78.9,30.3-78.9,83.4,0,49.5,28.5,81.3,77.7,81.3,15.9,0,32.1-3.3,42.6-8.4Z" transform="translate(-159.87 -240)"/><path class="cls-1" d="M989.8,537.79v19.5H915.7v-19.5Z" transform="translate(-159.87 -240)"/><path class="cls-1" d="M1192,539.89c-1.5-28.2-3.3-62.1-3-87.3h-.9c-6.9,23.7-15.3,48.9-25.5,76.8l-35.7,98.1h-19.8l-32.7-96.3c-9.6-28.5-17.7-54.6-23.4-78.6h-.6c-.6,25.2-2.1,59.1-3.9,89.4l-5.4,86.7h-24.9l14.1-202.2h33.3l34.5,97.8c8.4,24.9,15.3,47.1,20.4,68.1h.9c5.1-20.4,12.3-42.6,21.3-68.1l36-97.8H1210l12.6,202.2h-25.5Z" transform="translate(-159.87 -240)"/><path class="cls-1" d="M1367.5,533.89h-78.6v72.9h87.6v21.9H1262.8V426.49H1372v21.9h-83.1v63.9h78.6Z" transform="translate(-159.87 -240)"/><path class="cls-1" d="M1410.39,628.69V426.49h28.5l64.8,102.3a572.37,572.37,0,0,1,36.3,65.7l.6-.3c-2.4-27-3-51.6-3-83.1v-84.6h24.6v202.2h-26.4l-64.2-102.6c-14.1-22.5-27.6-45.6-37.8-67.5l-.9.3c1.5,25.5,2.1,49.8,2.1,83.4v86.4Z" transform="translate(-159.87 -240)"/><path class="cls-1" d="M1646.19,448.69h-61.5v-22.2h149.7v22.2h-61.8v180h-26.4Z" transform="translate(-159.87 -240)"/></g><polyline class="cls-2" points="249.15 10 264.05 18.61 278.96 27.22 293.86 35.84 308.77 44.45 323.67 53.06 338.58 61.67 353.48 70.28 368.39 78.89 383.29 87.51 398.2 96.12 413.1 104.73 428.01 113.34 442.91 121.95 457.82 130.57 472.73 139.18 487.63 147.79"/><line class="cls-2" x1="486.97" y1="422.71" x2="487.63" y2="147.79"/><polyline class="cls-2" points="249.15 10 189.53 44.45 129.9 78.89 70.28 113.34 10.66 147.79"/><polyline class="cls-2" points="248.48 560.5 248.48 491.44 248.48 422.38"/><line class="cls-2" x1="248.05" y1="141.25" x2="362.63" y2="75.5"/><polyline class="cls-2" points="367.86 491.53 427.41 457.12 486.97 422.71"/><polyline class="cls-2" points="10 422.71 69.67 457.18 129.33 491.65"/><line class="cls-2" x1="10.66" y1="147.79" x2="10" y2="422.71"/><polyline class="cls-2" points="10.66 147.79 25.53 156.36 40.39 164.93 55.25 173.5 70.12 182.07 84.98 190.64 99.84 199.21 114.71 207.78 129.57 216.35 144.44 224.93 159.3 233.5 174.16 242.07 189.03 250.64 203.89 259.21 218.76 267.78 233.62 276.35 248.48 284.92"/><polyline class="cls-2" points="487.63 147.79 427.84 182.07 368.06 216.35 308.27 250.64 248.48 284.92"/><polyline class="cls-2" points="129.24 491.61 129.41 422.88 129.57 354.14"/><polyline class="cls-2" points="367.73 491.61 367.89 422.88 368.06 354.14"/><line class="cls-2" x1="129.9" y1="354.48" x2="248.48" y2="422.71"/><line class="cls-2" x1="368.39" y1="354.48" x2="248.48" y2="422.71"/><polyline class="cls-2" points="129.53 491.28 189.19 525.75 248.86 560.23"/><polyline class="cls-2" points="248.64 560.16 308.19 525.75 367.75 491.34"/><line class="cls-2" x1="203.63" y1="116.5" x2="284.63" y2="163.5"/></g></svg>